<mxfile host="app.diagrams.net" modified="2021-01-06T09:45:12.314Z" agent="5.0 (Macintosh; Intel Mac OS X 10_15_7) AppleWebKit/537.36 (KHTML, like Gecko) Chrome/87.0.4280.88 Safari/537.36" etag="SE0vhXC-Bh7PCIWmwxC-" version="14.1.8" type="github">
  <diagram id="Vlfi6mMvMvN6XJ8Vp7cb" name="Page-1">
    <mxGraphModel dx="1184" dy="750" grid="1" gridSize="10" guides="1" tooltips="1" connect="1" arrows="1" fold="1" page="1" pageScale="1" pageWidth="827" pageHeight="1169" math="0" shadow="0">
      <root>
        <mxCell id="0" />
        <mxCell id="1" parent="0" />
        <mxCell id="JBZjO4JWBWowjMFUDQSQ-11" value="" style="edgeStyle=orthogonalEdgeStyle;rounded=0;orthogonalLoop=1;jettySize=auto;html=1;" edge="1" parent="1" source="JBZjO4JWBWowjMFUDQSQ-1" target="JBZjO4JWBWowjMFUDQSQ-2">
          <mxGeometry relative="1" as="geometry" />
        </mxCell>
        <mxCell id="JBZjO4JWBWowjMFUDQSQ-1" value="Load data from URI" style="rounded=0;whiteSpace=wrap;html=1;" vertex="1" parent="1">
          <mxGeometry x="50" y="60" width="120" height="60" as="geometry" />
        </mxCell>
        <mxCell id="JBZjO4JWBWowjMFUDQSQ-12" value="" style="edgeStyle=orthogonalEdgeStyle;rounded=0;orthogonalLoop=1;jettySize=auto;html=1;" edge="1" parent="1" source="JBZjO4JWBWowjMFUDQSQ-2" target="JBZjO4JWBWowjMFUDQSQ-3">
          <mxGeometry relative="1" as="geometry" />
        </mxCell>
        <mxCell id="JBZjO4JWBWowjMFUDQSQ-2" value="Use AutoML to find best model" style="rounded=0;whiteSpace=wrap;html=1;" vertex="1" parent="1">
          <mxGeometry x="200" y="60" width="120" height="60" as="geometry" />
        </mxCell>
        <mxCell id="JBZjO4JWBWowjMFUDQSQ-13" value="" style="edgeStyle=orthogonalEdgeStyle;rounded=0;orthogonalLoop=1;jettySize=auto;html=1;" edge="1" parent="1" source="JBZjO4JWBWowjMFUDQSQ-3" target="JBZjO4JWBWowjMFUDQSQ-4">
          <mxGeometry relative="1" as="geometry" />
        </mxCell>
        <mxCell id="JBZjO4JWBWowjMFUDQSQ-3" value="Deploy best model" style="rounded=0;whiteSpace=wrap;html=1;" vertex="1" parent="1">
          <mxGeometry x="353.5" y="60" width="120" height="60" as="geometry" />
        </mxCell>
        <mxCell id="JBZjO4JWBWowjMFUDQSQ-14" value="" style="edgeStyle=orthogonalEdgeStyle;rounded=0;orthogonalLoop=1;jettySize=auto;html=1;" edge="1" parent="1" source="JBZjO4JWBWowjMFUDQSQ-4" target="JBZjO4JWBWowjMFUDQSQ-5">
          <mxGeometry relative="1" as="geometry" />
        </mxCell>
        <mxCell id="JBZjO4JWBWowjMFUDQSQ-4" value="Enable Application&lt;br&gt;Insights" style="rounded=0;whiteSpace=wrap;html=1;" vertex="1" parent="1">
          <mxGeometry x="510" y="60" width="120" height="60" as="geometry" />
        </mxCell>
        <mxCell id="JBZjO4JWBWowjMFUDQSQ-15" style="edgeStyle=orthogonalEdgeStyle;rounded=0;orthogonalLoop=1;jettySize=auto;html=1;exitX=1;exitY=0.5;exitDx=0;exitDy=0;entryX=0;entryY=0.5;entryDx=0;entryDy=0;" edge="1" parent="1" source="JBZjO4JWBWowjMFUDQSQ-5" target="JBZjO4JWBWowjMFUDQSQ-6">
          <mxGeometry relative="1" as="geometry" />
        </mxCell>
        <mxCell id="JBZjO4JWBWowjMFUDQSQ-5" value="Create swagger documentation of REST endpoint" style="rounded=0;whiteSpace=wrap;html=1;" vertex="1" parent="1">
          <mxGeometry x="670" y="60" width="120" height="60" as="geometry" />
        </mxCell>
        <mxCell id="JBZjO4JWBWowjMFUDQSQ-16" value="" style="edgeStyle=orthogonalEdgeStyle;rounded=0;orthogonalLoop=1;jettySize=auto;html=1;" edge="1" parent="1" source="JBZjO4JWBWowjMFUDQSQ-6" target="JBZjO4JWBWowjMFUDQSQ-7">
          <mxGeometry relative="1" as="geometry" />
        </mxCell>
        <mxCell id="JBZjO4JWBWowjMFUDQSQ-6" value="Use REST endpoint to score data" style="rounded=0;whiteSpace=wrap;html=1;" vertex="1" parent="1">
          <mxGeometry x="50" y="170" width="140" height="60" as="geometry" />
        </mxCell>
        <mxCell id="JBZjO4JWBWowjMFUDQSQ-17" value="" style="edgeStyle=orthogonalEdgeStyle;rounded=0;orthogonalLoop=1;jettySize=auto;html=1;" edge="1" parent="1" source="JBZjO4JWBWowjMFUDQSQ-7" target="JBZjO4JWBWowjMFUDQSQ-8">
          <mxGeometry relative="1" as="geometry" />
        </mxCell>
        <mxCell id="JBZjO4JWBWowjMFUDQSQ-7" value="Benchmark REST endpoint" style="rounded=0;whiteSpace=wrap;html=1;" vertex="1" parent="1">
          <mxGeometry x="230" y="170" width="120" height="60" as="geometry" />
        </mxCell>
        <mxCell id="JBZjO4JWBWowjMFUDQSQ-18" value="" style="edgeStyle=orthogonalEdgeStyle;rounded=0;orthogonalLoop=1;jettySize=auto;html=1;" edge="1" parent="1" source="JBZjO4JWBWowjMFUDQSQ-8" target="JBZjO4JWBWowjMFUDQSQ-9">
          <mxGeometry relative="1" as="geometry" />
        </mxCell>
        <mxCell id="JBZjO4JWBWowjMFUDQSQ-8" value="Build pipeline" style="rounded=0;whiteSpace=wrap;html=1;" vertex="1" parent="1">
          <mxGeometry x="380" y="170" width="120" height="60" as="geometry" />
        </mxCell>
        <mxCell id="JBZjO4JWBWowjMFUDQSQ-19" value="" style="edgeStyle=orthogonalEdgeStyle;rounded=0;orthogonalLoop=1;jettySize=auto;html=1;" edge="1" parent="1" source="JBZjO4JWBWowjMFUDQSQ-9" target="JBZjO4JWBWowjMFUDQSQ-10">
          <mxGeometry relative="1" as="geometry" />
        </mxCell>
        <mxCell id="JBZjO4JWBWowjMFUDQSQ-9" value="Publish pipeline" style="rounded=0;whiteSpace=wrap;html=1;" vertex="1" parent="1">
          <mxGeometry x="530" y="170" width="120" height="60" as="geometry" />
        </mxCell>
        <mxCell id="JBZjO4JWBWowjMFUDQSQ-10" value="Use endpoint of pipeline to start new run" style="rounded=0;whiteSpace=wrap;html=1;" vertex="1" parent="1">
          <mxGeometry x="680" y="170" width="120" height="60" as="geometry" />
        </mxCell>
      </root>
    </mxGraphModel>
  </diagram>
</mxfile>
